<svg width="95" height="35" viewBox="0 0 95 35" fill="none" xmlns="http://www.w3.org/2000/svg">
<path d="M42.6766 8.92763L37.4296 14.0799C36.9359 14.565 36.6575 15.2281 36.6575 15.9199V32.1231C36.6575 33.0818 37.4353 33.8597 38.3941 33.8597H43.8908C44.8495 33.8597 45.6274 33.0818 45.6274 32.1231V10.1705C45.6274 8.63198 43.7703 7.85125 42.6738 8.93051" fill="white"/>
<path d="M39.6256 9.2225L45.1223 3.82334C45.24 3.70565 45.395 3.52194 45.5069 3.255C45.5557 3.13731 45.5873 3.02825 45.6074 2.93065C45.6074 2.91343 45.616 1.49547 45.6189 1.47825C45.5959 1.32325 45.5098 0.88408 45.1367 0.508061C44.6487 0.0200982 44.0373 0 43.9081 0H38.4114C37.4527 0 36.6748 0.777876 36.6748 1.73658V7.98537C36.6748 9.52389 38.5291 10.3046 39.6284 9.22537" fill="white"/>
<path d="M91.7484 9.08974L86.5014 14.2421C86.0077 14.7271 85.7292 15.3902 85.7292 16.082V32.2852C85.7292 33.2439 86.5071 34.0218 87.4658 34.0218H92.9626C93.9213 34.0218 94.6992 33.2439 94.6992 32.2852V10.3326C94.6992 8.7941 92.842 8.01335 91.7455 9.09261" fill="white"/>
<path d="M88.6973 9.38656L94.1941 3.9874C94.3118 3.86971 94.4668 3.68601 94.5787 3.41906C94.6275 3.30138 94.6591 3.1923 94.6792 3.09471C94.6792 3.07749 94.6878 1.65952 94.6906 1.6423C94.6677 1.4873 94.5816 1.04813 94.2084 0.672115C93.7205 0.184152 93.1091 0.164062 92.9799 0.164062H87.4832C86.5244 0.164062 85.7466 0.941929 85.7466 1.90063V8.14944C85.7466 9.68795 87.6037 10.4687 88.7002 9.38944" fill="white"/>
<path d="M80.2986 6.6511L75.2898 0.786937C75.2037 0.686474 75.1119 0.591745 75.0057 0.511375C74.954 0.47406 74.756 0.327674 74.4603 0.235822C74.2766 0.178414 73.9178 0.166936 73.9006 0.166936C73.8747 0.166936 73.6681 0.1698 73.3294 0.1698C70.8924 0.178411 61.5264 0.164062 61.2279 0.164062C60.2434 0.164062 59.4224 0.858693 59.233 1.78869V5.96221C59.233 7.12184 58.2915 8.06619 57.129 8.06619H52.1145C51.018 8.06619 50.1282 8.95601 50.1282 10.0525V31.9477C50.1282 33.0614 51.0323 33.9655 52.1461 33.9655H57.0802C58.1968 33.9655 59.0981 33.0614 59.0981 31.9477V12.6703C59.0981 11.2954 60.2147 10.1788 61.5896 10.1788H69.7644C71.1393 10.1788 72.2559 11.2954 72.2559 12.6703V31.985C72.2559 33.1044 73.1629 34.0115 74.2823 34.0115H79.2079C80.3245 34.0115 81.2258 33.1073 81.2258 31.9936C81.2172 24.367 81.2114 16.7376 81.2028 9.111C81.2028 8.20684 80.8785 7.33425 80.2929 6.64823" fill="white"/>
<path d="M32.1597 2.38239C32.1597 2.07239 32.0937 1.70211 31.9731 1.32609C31.6803 0.734792 31.0718 0.330078 30.3657 0.330078H24.6824C23.9791 0.330078 23.3706 0.734792 23.075 1.32609C22.9544 1.70498 22.8884 2.07239 22.8884 2.38239L22.8826 22.053C22.8826 23.4509 21.7488 24.5847 20.351 24.5847H11.8088C10.4109 24.5847 9.27709 23.4509 9.27709 22.053V19.6276C9.27709 18.0374 7.35968 17.2337 6.22301 18.3474L0.539683 23.9274C0.241164 24.2202 0.0574614 24.6048 0.0115355 25.0124V25.0267C-0.0142978 25.7702 0.594219 26.3816 1.33765 26.3816H7.00089C8.16339 26.3816 9.10487 27.323 9.10487 28.4855V32.3204C9.32588 33.2044 10.1267 33.8589 11.0797 33.8589H24.7713C25.2536 33.8589 25.7157 33.6666 26.0515 33.3221L31.6315 27.6388C31.9042 27.3632 32.0133 27.0991 32.0621 26.9441C32.1252 26.7432 32.1367 26.5567 32.1511 26.3442C32.1654 26.1318 32.1597 25.9539 32.1511 25.8276L32.1568 2.38526L32.1597 2.38239Z" fill="white"/>
<path d="M3.05408 18.9156L8.73741 13.3356C9.08185 12.9998 9.27417 12.5348 9.27417 12.0554L9.2799 2.12107C9.2799 1.1308 8.47621 0.324219 7.48306 0.324219H1.79972C0.809441 0.324219 0.00573759 1.12793 0.00573759 2.12107L0 17.6325C0 19.2227 1.91741 20.0293 3.05121 18.9127" fill="white"/>
</svg>
