<svg width="675" height="1000" viewBox="0 0 675 1000" fill="none" xmlns="http://www.w3.org/2000/svg">
<path d="M552.515 188.567L630.879 119.699C647.279 105.271 675 115.692 675 136.266V429.787C675 442.617 663.378 453 649.065 453H566.935C552.601 453 541 442.598 541 429.787V213.167C541 203.92 545.154 195.039 552.536 188.567H552.515Z" fill="white"/>
<path d="M666.673 51.1235L584.919 123.301C568.594 137.729 541 127.308 541 106.735V23.2117C541 10.3826 552.569 0 566.816 0H648.57C650.476 0 659.582 0.269677 666.823 6.79977C672.372 11.8081 673.657 17.6832 674 19.7636C673.957 19.9948 673.893 38.9687 673.85 39.1998C673.55 40.4904 673.1 41.9544 672.372 43.5339C670.722 47.0783 668.387 49.5632 666.652 51.1235H666.673Z" fill="white"/>
<path d="M551.343 728.567L628.537 659.699C644.693 645.271 672 655.692 672 676.266V969.787C672 982.617 660.551 993 646.452 993H565.548C551.428 993 540 982.598 540 969.787V753.167C540 743.92 544.092 735.04 551.364 728.567H551.343Z" fill="white"/>
<path d="M664.728 591.123L583.589 663.301C567.387 677.729 540 667.308 540 646.735V563.212C540 550.383 551.482 540 565.622 540H646.761C648.653 540 657.69 540.27 664.877 546.8C670.384 551.808 671.66 557.683 672 559.764C671.957 559.995 671.894 578.969 671.851 579.2C671.553 580.49 671.107 581.954 670.384 583.534C668.747 587.078 666.429 589.563 664.707 591.123H664.728Z" fill="white"/>
<path d="M473 972.985C473 987.91 459.611 1000 443.082 1000H370.072C353.479 1000 340.026 987.852 340.026 972.87V714.371C340.026 695.956 323.476 681.012 303.083 681.012H181.917C161.524 681.012 144.974 695.956 144.974 714.371V972.349C144.974 987.254 131.585 999.364 115.057 999.364H41.9176C25.3893 999.364 12 987.254 12 972.349V679.315C12 664.642 25.1758 652.744 41.4265 652.744H115.761C132.973 652.744 146.939 640.134 146.939 624.592V568.75C149.736 556.313 161.93 546.981 176.515 547C180.957 547 319.782 547.193 355.892 547.077C360.911 547.077 363.943 547.039 364.349 547.019C364.605 547.019 369.943 547.174 372.655 547.926C377.033 549.14 379.98 551.107 380.727 551.609C382.286 552.669 383.653 553.961 384.934 555.291L459.162 633.771C467.854 642.968 472.637 654.653 472.658 666.743C472.765 768.824 472.893 870.905 473 972.985Z" fill="white"/>
<path d="M477.876 352.459C477.662 355.312 477.491 357.817 476.569 360.497C475.862 362.559 474.256 366.106 470.185 369.788L387.209 445.81C382.196 450.417 375.34 453 368.163 453H164.57C150.408 453 138.518 444.249 135.218 432.414V381.122C135.218 365.585 121.207 352.979 103.939 352.979H19.7209C8.66601 352.979 -0.353554 344.806 0.0106564 334.86V334.687C0.674805 329.213 3.41707 324.066 7.85187 320.153L92.3487 245.499C109.252 230.599 137.746 241.355 137.746 262.635V295.095C137.746 313.792 154.586 328.943 175.367 328.943H302.391C323.173 328.943 340.012 313.792 340.012 295.095V41.4676C340.012 37.3234 340.997 32.3696 342.797 27.3194C347.168 19.4164 356.209 14 366.685 14H451.203C461.68 14 470.742 19.4164 475.091 27.3194C476.891 32.3696 477.876 37.3234 477.876 41.4676H477.898V345.558C478.005 347.255 478.069 349.625 477.876 352.459Z" fill="white"/>
<path d="M45.4283 253.095L130.003 178.471C135.127 173.962 138 167.777 138 161.341V38.0078C138 24.7515 126.037 14 111.288 14H26.7124C11.9627 14 0 24.7515 0 38.0078V235.947C0 257.218 28.5133 267.989 45.4069 253.076H45.4283V253.095Z" fill="white"/>
</svg>
