<svg width="143" height="52" viewBox="0 0 143 52" fill="none" xmlns="http://www.w3.org/2000/svg">
<path d="M56.2842 21.2808L64.2131 13.4956C65.8725 11.8645 68.6774 13.0426 68.6774 15.3684V48.5496C68.6774 50 67.5014 51.1737 66.0533 51.1737H57.7432C56.2929 51.1737 55.1191 49.9978 55.1191 48.5496V24.0617C55.1191 23.0164 55.5394 22.0125 56.2864 21.2808H56.2842Z" fill="white"/>
<path d="M67.9107 5.77955L59.6007 13.9393C57.9413 15.5704 55.1365 14.3923 55.1365 12.0665V2.6241C55.1365 1.17377 56.3124 0 57.7606 0H66.0706C66.2644 0 67.1899 0.0304872 67.926 0.768719C68.49 1.33492 68.6206 1.99911 68.6555 2.23429C68.6511 2.26043 68.6446 4.40544 68.6402 4.43157C68.6098 4.57747 68.564 4.74298 68.49 4.92155C68.3223 5.32224 68.0849 5.60316 67.9085 5.77955H67.9107Z" fill="white"/>
<path d="M130.377 21.2808L138.306 13.4956C139.966 11.8645 142.771 13.0426 142.771 15.3684V48.5496C142.771 50 141.595 51.1737 140.147 51.1737H131.837C130.386 51.1737 129.212 49.9978 129.212 48.5496V24.0617C129.212 23.0164 129.633 22.0125 130.38 21.2808H130.377Z" fill="white"/>
<path d="M142.004 5.77955L133.694 13.9393C132.035 15.5704 129.23 14.3923 129.23 12.0665V2.6241C129.23 1.17377 130.406 0 131.854 0H140.164C140.358 0 141.283 0.0304872 142.019 0.768719C142.583 1.33492 142.714 1.99911 142.749 2.23429C142.744 2.26043 142.738 4.40544 142.734 4.43157C142.703 4.57747 142.657 4.74298 142.583 4.92155C142.416 5.32224 142.178 5.60316 142.002 5.77955H142.004Z" fill="white"/>
<path d="M122.451 48.9041C122.451 50.5897 121.085 51.9551 119.4 51.9551H111.954C110.262 51.9551 108.89 50.5831 108.89 48.8911V19.6972C108.89 17.6175 107.203 15.9298 105.123 15.9298H92.7667C90.6871 15.9298 88.9994 17.6175 88.9994 19.6972V48.8323C88.9994 50.5156 87.634 51.8832 85.9484 51.8832H78.4899C76.8044 51.8832 75.439 50.5156 75.439 48.8323V15.7381C75.439 14.0809 76.7826 12.7373 78.4398 12.7373H86.0203C87.7755 12.7373 89.1997 11.3131 89.1997 9.55789V3.25134C89.485 1.84674 90.7284 0.792748 92.2158 0.794925C92.6687 0.794925 106.826 0.816701 110.508 0.803634C111.02 0.803634 111.329 0.799279 111.371 0.797102C111.397 0.797102 111.941 0.814523 112.218 0.899453C112.664 1.03665 112.965 1.25877 113.041 1.31539C113.2 1.43516 113.339 1.58107 113.47 1.73132L121.04 10.5945C121.926 11.6332 122.414 12.9529 122.416 14.3183C122.427 25.8469 122.44 37.3755 122.451 48.9041Z" fill="white"/>
<path d="M48.5905 39.814C48.5687 40.1363 48.5513 40.4194 48.4577 40.7221C48.3858 40.9551 48.2225 41.3558 47.8087 41.7717L39.3746 50.3605C38.865 50.8809 38.1681 51.1727 37.4386 51.1727H16.7442C15.3047 51.1727 14.0961 50.1841 13.7608 48.847V43.0522C13.7608 41.297 12.3366 39.8728 10.5813 39.8728H2.0209C0.897221 39.8728 -0.0195799 38.9494 0.0174406 37.8258V37.8062C0.0849486 37.1877 0.363689 36.6063 0.814467 36.1642L9.40322 27.7301C11.1214 26.0467 14.0177 27.2619 14.0177 29.666V33.3332C14.0177 35.4456 15.7294 37.1572 17.8417 37.1572H30.7532C32.8655 37.1572 34.5772 35.4456 34.5772 33.3332V4.67936C34.5772 4.21116 34.6773 3.6515 34.8603 3.08095C35.3045 2.1881 36.2235 1.57617 37.2884 1.57617H45.8793C46.9442 1.57617 47.8653 2.1881 48.3074 3.08095C48.4903 3.6515 48.5905 4.21116 48.5905 4.67936H48.5927V39.0344C48.6036 39.226 48.6101 39.4939 48.5905 39.814Z" fill="white"/>
<path d="M4.6145 28.597L13.2054 20.1629C13.7259 19.6533 14.0177 18.9543 14.0177 18.2269V4.2876C14.0177 2.78936 12.8026 1.57422 11.3043 1.57422H2.71338C1.21514 1.57422 0 2.78936 0 4.2876V26.6589C0 29.063 2.89631 30.2803 4.61232 28.5948H4.6145V28.597Z" fill="white"/>
</svg>
