<svg width="170" height="170" viewBox="0 0 170 170" fill="none" xmlns="http://www.w3.org/2000/svg">
<path d="M8.4943 91.8838C8.54596 91.8694 8.58328 91.8551 8.60911 91.8436C8.68661 91.8177 8.78133 91.7489 8.89615 91.6369C9.05115 91.4647 9.12865 91.2752 9.12291 91.0657L8.98513 84.1739C8.97078 83.5166 8.80429 82.9053 8.48281 82.3398C8.38809 82.1819 8.29049 82.0355 8.18429 81.8949C8.0867 81.7628 7.94893 81.6078 7.76809 81.427C7.54994 81.2376 7.37772 81.1055 7.25717 81.0309C6.59985 80.5917 5.85642 80.3822 5.02688 80.3994L3.84142 80.4224C3.42809 80.431 3.06355 80.4827 2.74781 80.5803C2.67605 80.6061 2.60429 80.6319 2.5354 80.6549C2.43207 80.6922 2.34022 80.7266 2.25985 80.7582C2.02448 80.8702 1.79772 81.0051 1.5767 81.1601C1.46189 81.2404 1.29253 81.3868 1.06864 81.6021C0.905034 81.7915 0.784478 81.9379 0.709849 82.047C0.221886 82.7502 -0.0163512 83.5138 0.00087102 84.3433L0.138648 91.2867C0.138648 91.3929 0.184573 91.5221 0.267813 91.6714C0.457258 91.9469 0.712722 92.0818 1.03133 92.0761L8.48856 91.9268V91.8895L8.4943 91.8838ZM2.44355 89.7224L2.33448 84.3347C2.32874 84.1108 2.36031 83.9099 2.42633 83.7262C2.46652 83.6228 2.52393 83.5166 2.59282 83.4076C2.64735 83.3243 2.74207 83.221 2.87698 83.0976C3.15253 82.8737 3.44818 82.756 3.7668 82.7503L5.16466 82.7215C5.44309 82.7158 5.71864 82.8019 5.98846 82.9828C6.03152 83.0028 6.11763 83.0775 6.24393 83.2038C6.51661 83.4851 6.65439 83.8123 6.663 84.1826L6.77207 89.6363L2.44069 89.7224H2.44355Z" fill="white"/>
<path d="M1.23219 77.0661C1.39867 77.2785 1.5221 77.4336 1.60534 77.5283C2.22821 78.1942 2.97738 78.5932 3.8471 78.7281L5.12728 78.9261C5.87071 79.041 6.58543 78.9434 7.27145 78.6362C7.42358 78.5817 7.62738 78.4669 7.88571 78.2947C8.12108 78.1196 8.2933 77.9789 8.3995 77.8785C9.01089 77.2642 9.38117 76.5466 9.50747 75.7285L10.2078 71.1848C10.3026 70.5734 10.248 69.9677 10.0442 69.3707C9.96386 69.1267 9.85192 68.8856 9.70553 68.6473C9.63664 68.5096 9.51034 68.3316 9.33237 68.1077C8.69515 67.3873 7.90868 66.9538 6.97006 66.8103L5.74155 66.6209C4.94645 66.4974 4.1858 66.6094 3.4596 66.9538C3.31895 67.0285 3.11229 67.149 2.84247 67.3212C2.81377 67.3471 2.78506 67.37 2.75923 67.393C2.58126 67.5336 2.44923 67.6571 2.36312 67.7547C1.79766 68.3488 1.45608 69.032 1.33553 69.8012L0.629413 74.3709C0.517469 75.1028 0.623674 75.8261 0.953766 76.5409C1.01117 76.6844 1.10303 76.8595 1.23219 77.0661ZM2.93719 74.6866L3.63182 70.1945C3.67488 69.9218 3.78395 69.6807 3.95904 69.4683C4.18867 69.187 4.48432 69.0061 4.83738 68.9258C4.98377 68.8885 5.1933 68.8885 5.46886 68.9315L6.55099 69.098C6.80933 69.1382 7.01599 69.2042 7.17386 69.2989C7.2858 69.3678 7.39201 69.4568 7.49247 69.563C7.8484 69.9361 7.98905 70.3696 7.91155 70.8661L7.22266 75.3324C7.15664 75.763 6.9471 76.1046 6.59405 76.3572C6.43331 76.4634 6.31275 76.5236 6.23238 76.5351C6.00275 76.6356 5.73293 76.6614 5.41719 76.6126L4.25756 76.4347C4.01932 76.3973 3.82701 76.3342 3.68062 76.2423C3.58877 76.1936 3.48543 76.1132 3.37062 76.0041C3.00321 75.6166 2.85969 75.1774 2.93432 74.6837L2.93719 74.6866Z" fill="white"/>
<path d="M10.3084 66.1826C10.4663 66.2372 10.6328 66.2314 10.805 66.1683C11.0232 66.0736 11.1667 65.9272 11.2356 65.7291L11.7465 64.2337C11.7465 64.2337 11.7465 64.2279 11.7436 64.225L7.33761 62.721C7.50409 62.6865 7.82844 62.6234 8.31066 62.5287C9.65974 62.2617 10.3601 62.1239 10.4147 62.1096C11.3676 61.9259 11.8642 61.8283 11.9044 61.8139C12.1484 61.7336 12.312 61.5814 12.3895 61.3518L12.9779 59.6238C13.0583 59.3885 13.0209 59.1617 12.8631 58.9436L11.5743 57.4682C10.5094 56.2512 9.92381 55.5795 9.81761 55.4503L14.2236 56.9544C14.2236 56.9544 14.2294 56.9544 14.2322 56.9515L14.7432 55.4561C14.7834 55.3412 14.7891 55.2207 14.7633 55.0944C14.703 54.8074 14.5336 54.615 14.2523 54.5175L6.48511 51.8652C6.48511 51.8652 6.47937 51.8652 6.4765 51.8681L5.82206 53.7826C5.78474 53.8888 5.76752 53.9807 5.77039 54.0582C5.77039 54.2218 5.82493 54.3739 5.92826 54.5146C6.62863 55.3125 7.00178 55.7431 7.0477 55.8034C7.12807 55.8866 7.8141 56.6702 9.10576 58.1542C9.98697 59.1646 10.4462 59.687 10.4835 59.7272V59.7329C10.1563 59.7989 9.96113 59.8363 9.90373 59.8477C8.40252 60.1434 6.92428 60.4362 5.469 60.7261C4.45863 60.9213 3.91326 61.0275 3.83863 61.0475C3.49419 61.0877 3.26743 61.2628 3.16409 61.5671L2.50391 63.5017C2.50391 63.5017 2.50391 63.5075 2.50678 63.5103L10.3113 66.174L10.3084 66.1826Z" fill="white"/>
<path d="M15.7909 52.8404C16.0291 52.7514 16.1956 52.6108 16.2875 52.4213L17.1342 50.6761L9.86645 47.1485C9.69996 47.0681 9.54497 47.0336 9.40145 47.0451C9.06274 47.0767 8.81876 47.2432 8.6695 47.5503L7.8457 49.2496L15.1307 52.7859C15.3546 52.8949 15.5756 52.9122 15.7909 52.8404Z" fill="white"/>
<path d="M10.8969 44.6755L16.9964 48.5879C17.0825 48.6424 17.1744 48.6826 17.2691 48.6998C17.4614 48.7429 17.6451 48.7256 17.8231 48.6481C17.9666 48.5821 18.0958 48.4616 18.2106 48.2836L18.9741 47.0953L13.8189 43.7886L15.1709 43.3982C16.075 43.1399 17.1112 42.8442 18.2737 42.5084C19.4362 42.1726 20.4782 41.8626 21.3967 41.5842C22.3152 41.3057 22.7888 41.145 22.8175 41.1019L23.5523 39.9566C23.6384 39.8217 23.6872 39.7242 23.6958 39.6581C23.7217 39.5634 23.7332 39.4744 23.7332 39.3969C23.7016 39.0869 23.5667 38.8544 23.3227 38.6966L17.2174 34.7814C17.0624 34.6809 16.8959 34.635 16.7151 34.6436C16.4195 34.6579 16.1898 34.7929 16.0262 35.0512L15.2426 36.2711L20.4035 39.5806L19.0459 39.9653C18.1417 40.2236 17.1083 40.5192 15.9458 40.8522C14.7833 41.188 13.7443 41.4923 12.8286 41.7679C11.913 42.0434 11.4394 42.2013 11.4164 42.2415L10.6328 43.4614C10.5266 43.6279 10.4835 43.8029 10.5008 43.9895C10.5208 44.2823 10.6558 44.5091 10.8997 44.6669L10.8969 44.6755Z" fill="white"/>
<path d="M19.017 32.4518L19.4562 32.8479C20.3517 33.6573 20.8828 34.1338 21.0492 34.2773L24.4133 37.3142C24.5166 37.406 24.6286 37.4749 24.752 37.5151C24.9788 37.5754 25.1969 37.5524 25.4065 37.4462C25.5012 37.3917 25.5672 37.3429 25.6103 37.2998L31.4974 30.7755C31.6237 30.6348 31.7012 30.4884 31.727 30.3392C31.7414 30.299 31.7442 30.2158 31.7385 30.0866C31.7098 29.8627 31.6208 29.6847 31.4744 29.5527L30.5129 28.6859C30.5129 28.6859 30.5071 28.6859 30.5042 28.6859L25.0391 34.7395L24.0201 33.8181V33.8095L27.8434 29.5728L26.3967 28.2696L22.5648 32.5149L21.6032 31.6481L27.077 25.583L26.0954 24.696C26.0265 24.6329 25.9662 24.5898 25.9203 24.564C25.7854 24.4894 25.6562 24.4521 25.5356 24.4521C25.2601 24.4406 25.0304 24.541 24.8439 24.7477L18.9338 31.295C18.9022 31.3352 18.8821 31.3696 18.8706 31.3955C18.8419 31.4328 18.8132 31.5017 18.7816 31.6021C18.7443 31.7399 18.7443 31.8921 18.7816 32.0528C18.8362 32.2221 18.9166 32.3571 19.0199 32.4518H19.017Z" fill="white"/>
<path d="M43.1424 19.7386C43.1998 18.7799 42.9473 17.916 42.3847 17.1496L41.647 16.1478C41.1705 15.4991 40.5534 15.0427 39.7956 14.7729C39.6435 14.7241 39.411 14.6667 39.0981 14.5978C39.0579 14.5949 39.0206 14.5921 38.989 14.5892C38.7623 14.5634 38.5843 14.5576 38.4523 14.5662C37.6313 14.5892 36.908 14.8303 36.2794 15.2896L32.5536 18.025C31.9566 18.4613 31.5232 19.0497 31.2505 19.7903C31.1902 19.931 31.1299 20.1204 31.0754 20.3586C31.0438 20.6285 31.0237 20.8236 31.0123 20.9499C30.9835 21.8627 31.2304 22.6722 31.7528 23.384L32.5192 24.4288C32.9641 25.0345 33.5382 25.4708 34.2414 25.7406C34.3878 25.8095 34.6117 25.8726 34.9188 25.9329C35.2116 25.9759 35.4298 25.996 35.5761 26.0018C36.443 26.0018 37.2123 25.7521 37.8811 25.2612L41.5867 22.5401C42.0861 22.1727 42.4736 21.7077 42.7521 21.1423C42.8669 20.9126 42.9587 20.6629 43.0248 20.3902C43.0707 20.2438 43.1109 20.0285 43.1424 19.7444V19.7386ZM40.186 20.6887L36.5435 23.3639C36.1933 23.6223 35.8029 23.7141 35.3752 23.6452C35.1858 23.6079 35.0595 23.5648 34.9935 23.5189C34.761 23.4271 34.5514 23.2548 34.362 22.9994L33.6673 22.055C33.5238 21.8598 33.4349 21.679 33.3947 21.5097C33.3631 21.4092 33.3459 21.28 33.343 21.125C33.3574 20.5911 33.564 20.1778 33.9659 19.8822L37.6285 17.1926C37.8495 17.029 38.0992 16.9343 38.3719 16.9113C38.7336 16.874 39.0694 16.9544 39.3765 17.1496C39.5057 17.2242 39.6549 17.3763 39.8186 17.6002L40.4673 18.4843C40.6223 18.6967 40.7227 18.889 40.7658 19.0641C40.7945 19.1904 40.8088 19.3282 40.8031 19.4746C40.7916 19.9884 40.5849 20.3959 40.1774 20.6945L40.186 20.6887Z" fill="white"/>
<path d="M45.6426 12.7895L45.6627 12.8354C45.8033 13.1483 45.921 13.3808 46.0186 13.5301C46.1076 13.6678 46.1937 13.7826 46.2712 13.8688C46.3544 13.9635 46.4348 14.0381 46.5066 14.0955C46.5726 14.1558 46.6587 14.2132 46.7678 14.2677C47.3304 14.5749 48.0824 14.5203 49.0239 14.0984L54.977 11.4289C55 11.4175 55.0258 11.4117 55.0517 11.4089C55.1579 11.4031 55.2296 11.4433 55.2669 11.5237L55.5425 12.1408C55.5425 12.1408 55.5482 12.1523 55.5511 12.1666C55.554 12.1781 55.554 12.1925 55.5511 12.2097C55.5597 12.313 55.5167 12.3877 55.4248 12.4307L47.1352 16.1478L47.6576 17.3132C47.7609 17.5457 47.9245 17.7151 48.1484 17.8213C48.4556 17.9619 48.7483 17.9705 49.021 17.8471L56.2974 14.5835C57.081 14.2304 57.6092 13.8257 57.879 13.3664C58.2148 12.8067 58.1976 12.1092 57.8244 11.2768L57.4484 10.4358C57.2418 9.97654 56.9892 9.62635 56.6878 9.38524C56.3433 9.11256 55.9214 8.98626 55.4248 9.0121C55.2698 9.02071 55.0804 9.05228 54.8622 9.10969C54.5608 9.19293 54.3255 9.27329 54.1561 9.34792L54.1102 9.36802C52.8157 9.94783 51.9402 10.3468 51.4809 10.5621C51.3173 10.6396 51.2054 10.6941 51.1422 10.72C50.8925 10.8319 49.8764 11.2912 48.0996 12.0977C48.0882 12.1035 48.0767 12.1064 48.0681 12.1092C48.0595 12.1092 48.048 12.1121 48.0336 12.115C47.9245 12.115 47.847 12.0633 47.8011 11.9571L47.6002 11.5093C47.5657 11.4347 47.56 11.3687 47.583 11.3113C47.6117 11.251 47.6576 11.2079 47.715 11.1821C48.0049 11.0529 48.5503 10.8032 49.3511 10.4329C50.1204 10.0885 51.1996 9.59765 52.5918 8.9633C54.3628 8.1682 55.5224 7.64293 56.0678 7.39034L56.0793 7.38459L55.5655 6.23644C55.4248 5.92357 55.1952 5.71691 54.8737 5.62219C54.6326 5.56478 54.4087 5.58487 54.2049 5.67385L46.7333 9.02644C46.4549 9.15274 46.2081 9.29913 45.9899 9.46561C45.7287 9.65218 45.522 9.87608 45.3642 10.1344C45.3154 10.2033 45.2695 10.3066 45.2264 10.4444C45.146 10.6826 45.1145 10.9151 45.1345 11.1362C45.1345 11.4806 45.3039 12.0317 45.6426 12.7866V12.7895Z" fill="white"/>
<path d="M58.1402 5.75366C58.4502 6.9219 58.6367 7.60792 58.697 7.82033L59.8652 12.2005C59.8997 12.3326 59.96 12.4502 60.0403 12.5536C60.1982 12.7287 60.3934 12.8291 60.6259 12.8521C60.735 12.8578 60.8182 12.8521 60.8756 12.8377L69.3662 10.573C69.5499 10.5242 69.6934 10.4438 69.7967 10.3319C69.8283 10.3061 69.8771 10.2372 69.9431 10.1252C70.0407 9.92144 70.0637 9.72338 70.012 9.53394L69.679 8.28245C69.679 8.28245 69.6762 8.27671 69.6704 8.27671L61.7913 10.3807L61.4382 9.05458L61.444 9.04597L66.9579 7.57347L66.4556 5.69338L60.9302 7.16875L60.5972 5.91727L68.4907 3.81042L68.1491 2.5331C68.1262 2.44125 68.1003 2.37236 68.0745 2.32644C68.0027 2.18866 67.9166 2.0882 67.8133 2.02218C67.5894 1.86431 67.3426 1.82125 67.0727 1.89301L58.5506 4.16634C58.5018 4.18356 58.4674 4.20079 58.4444 4.21514C58.3985 4.23236 58.3382 4.27255 58.2578 4.33856C58.1488 4.43329 58.0684 4.55959 58.011 4.71746C57.9622 4.88968 57.9593 5.04468 57.9938 5.18245L58.1459 5.75653L58.1402 5.75366Z" fill="white"/>
<path d="M70.8014 6.8333C70.9191 8.01876 71.2636 8.8196 71.8348 9.23867C72.0529 9.40228 72.2682 9.51997 72.4777 9.58886C72.6299 9.64339 72.8451 9.69219 73.1264 9.73237C73.4967 9.7783 73.7436 9.79552 73.8641 9.78404C74.0191 9.78404 74.2631 9.76969 74.5932 9.7496L79.6221 9.25302C79.9005 9.22719 80.2478 9.16116 80.664 9.0607C81.0257 8.96024 81.2955 8.86265 81.4706 8.76793C81.6486 8.67607 81.8179 8.567 81.9815 8.43783C82.1767 8.26274 82.3346 8.06756 82.4551 7.84654C82.5355 7.68867 82.59 7.54515 82.6274 7.41598C82.7651 6.92228 82.8025 6.35394 82.7364 5.70811C82.702 5.35218 82.5269 3.77348 82.2112 0.971998C82.1882 0.865795 82.1509 0.765334 82.1021 0.664871C81.9557 0.403667 81.7433 0.228575 81.4677 0.145335C81.3242 0.093668 81.1807 0.076445 81.0343 0.0907969L79.7627 0.217094C79.7627 0.217094 79.7512 0.217091 79.7512 0.222831C79.7512 0.222831 79.7512 0.228572 79.7512 0.231442L80.3311 6.12144C80.3512 6.3195 80.3196 6.46589 80.2392 6.56348C80.1301 6.72709 79.9895 6.81608 79.8202 6.8333L73.8785 7.41885C73.6431 7.44181 73.4565 7.34135 73.3188 7.11746C73.2757 7.03996 73.2527 6.96533 73.2441 6.89931L72.6557 0.920334L71.3784 1.04663C71.0483 1.0782 70.7813 1.23895 70.5776 1.52598C70.4312 1.73839 70.3709 1.99672 70.4025 2.30098L70.7986 6.83616L70.8014 6.8333Z" fill="white"/>
<path d="M92.995 9.24547L94.8062 9.47223C95.0531 9.5038 95.2684 9.42055 95.4492 9.2225L96.6318 7.66102C97.6077 6.37223 98.1473 5.66324 98.2507 5.53121L97.6709 10.1496C97.6709 10.1496 97.6709 10.1554 97.6766 10.1554L99.2438 10.3534C99.3644 10.3678 99.4821 10.3534 99.6026 10.3018C99.8724 10.1841 100.027 9.97741 100.065 9.68463L101.087 1.54139C101.087 1.54139 101.087 1.53565 101.081 1.53278L99.0716 1.28019C98.9597 1.26584 98.8678 1.2687 98.7903 1.28306C98.6296 1.32037 98.4918 1.40074 98.377 1.52991C97.7369 2.37667 97.3924 2.83018 97.3408 2.88759C97.2776 2.98231 96.649 3.81472 95.4549 5.37908C94.6455 6.44685 94.2235 7.0037 94.192 7.04676H94.1862C94.0571 6.73963 93.9796 6.5588 93.9566 6.50426C93.3625 5.09491 92.7769 3.70565 92.2 2.33935C91.8038 1.38926 91.5886 0.878335 91.5541 0.809447C91.445 0.479354 91.2298 0.295648 90.9083 0.255463L88.8818 0C88.8818 0 88.8761 1.22648e-06 88.8732 0.00574197L87.8456 8.1863C87.8255 8.35278 87.8628 8.51352 87.9604 8.66852C88.0953 8.8637 88.2675 8.97278 88.4771 9.00148L90.0443 9.19954C90.0443 9.19954 90.05 9.19954 90.05 9.1938L90.6299 4.57538C90.6959 4.73038 90.825 5.03463 91.0145 5.48815C91.5484 6.75398 91.8268 7.41417 91.8526 7.46583C92.2258 8.36139 92.421 8.82926 92.4439 8.86657C92.5731 9.09046 92.7539 9.21676 92.995 9.24834V9.24547Z" fill="white"/>
<path d="M102.14 10.969C102.229 11.0321 102.301 11.0723 102.358 11.0895L110.765 13.6442C110.946 13.6987 111.11 13.7073 111.256 13.6671C111.299 13.6614 111.377 13.6298 111.489 13.5695C111.678 13.4461 111.802 13.2911 111.859 13.1017L112.235 11.8617C112.235 11.8617 112.235 11.8559 112.229 11.853L104.425 9.48211L104.824 8.16749L104.832 8.16175L110.292 9.82082L110.857 7.95795L105.386 6.29601L105.762 5.05601L113.578 7.4298L113.963 6.16397C113.992 6.07499 114.006 6.00036 114.009 5.94869C114.02 5.79369 113.997 5.66165 113.949 5.55258C113.84 5.29998 113.653 5.1335 113.386 5.05026L104.947 2.48702C104.896 2.47554 104.858 2.47267 104.83 2.47267C104.784 2.46406 104.709 2.46406 104.606 2.47841C104.462 2.50138 104.327 2.56739 104.198 2.67073C104.066 2.79128 103.98 2.92045 103.94 3.05823L103.767 3.62656C103.417 4.78332 103.211 5.46647 103.153 5.67601L101.836 10.0131C101.796 10.1452 101.784 10.2772 101.798 10.4064C101.841 10.6389 101.953 10.8255 102.14 10.969Z" fill="white"/>
<path d="M114.043 14.9432C114.21 15.0236 114.379 15.0523 114.549 15.0264C114.844 14.9604 115.051 14.8054 115.174 14.5557L115.817 13.2411L117.287 13.9615C118.493 14.5413 119.213 14.8915 119.451 15.0064C119.489 15.015 119.514 15.0236 119.526 15.0293L119.601 15.3881C119.756 16.1057 119.911 16.7716 120.066 17.3888C120.103 17.5667 120.149 17.7016 120.203 17.7935C120.218 17.8193 120.232 17.8451 120.246 17.8652C120.261 17.8853 120.275 17.9083 120.292 17.9313C120.358 18.003 120.462 18.0719 120.605 18.1408L123.105 19.3664C123.105 19.3377 123.088 19.2803 123.054 19.1913C122.962 18.8727 122.867 18.534 122.772 18.1695C122.721 17.9829 122.669 17.7906 122.614 17.5983C122.546 17.2883 122.393 16.7688 122.158 16.0397C122.347 16.0713 122.534 16.0913 122.715 16.1057C122.764 16.1057 122.812 16.1057 122.864 16.1057C122.97 16.1057 123.088 16.1057 123.22 16.1C123.24 16.0971 123.26 16.0942 123.28 16.0942C123.415 16.0799 123.533 16.0655 123.625 16.0483L123.745 16.0225L123.808 16.011L123.895 15.9823C123.961 15.9622 124.032 15.9364 124.104 15.9048C124.251 15.8474 124.383 15.79 124.497 15.7326C124.641 15.6436 124.764 15.5632 124.87 15.4857C125.224 15.2044 125.502 14.8571 125.703 14.4438L125.74 14.3691C125.91 14.0247 126.01 13.6716 126.042 13.31C126.105 12.6326 125.956 12.0125 125.597 11.4471C125.525 11.3208 125.453 11.206 125.384 11.1055C125.333 11.0424 125.261 10.9591 125.169 10.8558C124.716 10.3276 124.093 9.86839 123.3 9.48089L117.428 6.60477C117.227 6.50718 117.009 6.49283 116.773 6.56459C116.719 6.58181 116.667 6.6019 116.621 6.62487C116.552 6.66792 116.498 6.70811 116.46 6.74829C116.391 6.81144 116.325 6.90616 116.262 7.0382L112.709 14.2945L114.035 14.9432H114.043ZM117.726 9.34024L122.649 11.7514C122.726 11.8001 122.787 11.8346 122.835 11.8576C122.965 11.9551 123.056 12.0384 123.108 12.1073C123.117 12.1216 123.125 12.1331 123.134 12.1417C123.168 12.1819 123.197 12.225 123.223 12.2709C123.389 12.5866 123.404 12.8851 123.266 13.1664C123.197 13.31 123.108 13.4248 122.999 13.508C122.861 13.6228 122.7 13.6888 122.52 13.7118C122.264 13.7463 121.951 13.6716 121.581 13.4879L116.839 11.1658L117.732 9.34311L117.726 9.34024Z" fill="white"/>
<path d="M125.143 18.029C125.112 18.1869 125.089 18.3821 125.08 18.6175C125.066 18.7696 125.08 19.0078 125.12 19.3265C125.178 19.6106 125.229 19.8173 125.275 19.9522C125.554 20.7473 126.016 21.373 126.659 21.8323L132.293 25.8451C132.454 25.9599 132.638 26.0144 132.842 26.0058C133.126 25.9714 133.335 25.8565 133.473 25.6642L134.337 24.4501L127.951 19.9034C127.873 19.8489 127.781 19.7427 127.669 19.5848C127.606 19.5102 127.56 19.4269 127.526 19.3408C127.485 19.2576 127.445 19.1284 127.408 18.9476C127.353 18.54 127.442 18.1754 127.672 17.8539L128.438 16.7776C128.631 16.5077 128.886 16.324 129.205 16.2236C129.699 16.0801 130.149 16.1518 130.554 16.4417L136.863 20.931L137.715 19.734C137.804 19.6078 137.859 19.4642 137.873 19.3006C137.882 18.9705 137.759 18.7122 137.497 18.5285L131.871 14.5243C131.475 14.243 131.022 14.0392 130.511 13.9129C130.258 13.8613 129.986 13.8326 129.687 13.8354C129.521 13.8239 129.282 13.8412 128.967 13.8928C128.849 13.9187 128.74 13.9445 128.642 13.9703C128.582 13.9876 128.527 13.999 128.479 14.0105C128.255 14.0938 128.068 14.177 127.916 14.2574C127.365 14.5301 126.891 14.9405 126.501 15.4888L125.812 16.4561C125.453 16.9613 125.227 17.4865 125.135 18.0319L125.143 18.029Z" fill="white"/>
<path d="M133.344 26.4472C133.344 26.4472 133.344 26.4529 133.35 26.4587L134.736 27.8537C135.043 28.1608 135.414 28.2842 135.847 28.2211L136.978 27.9139C136.998 27.8996 137.015 27.891 137.03 27.8938C137.044 27.8938 137.053 27.8996 137.058 27.9053L141.404 32.2769C141.404 32.2769 141.384 32.363 141.344 32.5008C141.298 32.6615 141.229 32.9113 141.14 33.2471C140.965 33.7724 141.062 34.2201 141.433 34.5933L142.833 36.0026L143.258 34.5187C143.27 34.4526 143.663 33.0376 144.438 30.2734C144.561 29.8313 144.67 29.4352 144.771 29.0879C145.113 27.8709 145.29 27.225 145.305 27.1562C145.313 27.1275 145.322 27.0988 145.328 27.0701C145.397 26.8576 145.437 26.694 145.457 26.5792C145.5 26.1716 145.388 25.8329 145.118 25.5602L143.786 24.2198C143.545 23.9758 143.241 23.861 142.877 23.8696C142.753 23.8839 142.618 23.9126 142.48 23.9557C142.434 23.9643 141.889 24.1107 140.847 24.3977C140.175 24.5814 139.291 24.8225 138.201 25.1182C136.829 25.4885 135.213 25.9276 133.35 26.4386C133.347 26.4414 133.344 26.4443 133.344 26.4443V26.4472ZM143.098 26.2434C143.077 26.3008 142.71 27.6125 142.001 30.1787L139.156 27.3169L143.098 26.2434Z" fill="white"/>
<path d="M143.666 36.0805C143.631 36.1207 143.606 36.1522 143.594 36.1781C143.545 36.2441 143.505 36.3532 143.474 36.5082C143.439 36.7378 143.485 36.9387 143.606 37.1081L147.587 42.734C147.966 43.2707 148.448 43.6841 149.031 43.9711C149.197 44.0486 149.361 44.1146 149.527 44.172C149.682 44.2266 149.883 44.2783 150.136 44.327C150.423 44.3615 150.638 44.3758 150.781 44.3672C151.571 44.3615 152.306 44.1175 152.983 43.6382L153.95 42.9521C154.286 42.7139 154.559 42.467 154.766 42.2087C154.812 42.1456 154.855 42.0853 154.898 42.0279C154.961 41.9389 155.018 41.8614 155.067 41.7896C155.199 41.5658 155.311 41.3275 155.406 41.0749C155.454 40.9457 155.512 40.7276 155.578 40.4233C155.607 40.1765 155.624 39.9842 155.624 39.8521C155.635 38.9968 155.4 38.2304 154.921 37.553L150.908 31.884C150.845 31.7979 150.738 31.7146 150.583 31.64C150.271 31.5195 149.986 31.551 149.725 31.7347L143.637 36.0432L143.66 36.0747L143.666 36.0805ZM149.889 34.4702L153.003 38.8705C153.132 39.0513 153.221 39.2379 153.27 39.4245C153.296 39.5335 153.307 39.6541 153.31 39.7832C153.31 39.8808 153.29 40.0215 153.25 40.1995C153.15 40.541 152.969 40.8022 152.708 40.9859L151.565 41.7954C151.338 41.9561 151.06 42.0394 150.736 42.0422C150.687 42.0508 150.575 42.0365 150.4 42.0049C150.015 41.9245 149.717 41.7322 149.504 41.4308L146.353 36.9789L149.889 34.4759V34.4702Z" fill="white"/>
<path d="M153.723 44.908C153.043 45.2295 152.506 45.7117 152.11 46.3518C152.016 46.4839 151.909 46.6905 151.795 46.9804C151.7 47.2589 151.634 47.4713 151.602 47.6148C151.442 48.4673 151.536 49.2681 151.892 50.0173L153.861 54.1707C154.125 54.7304 154.51 55.1983 155.015 55.5801C155.219 55.7351 155.446 55.8728 155.701 55.9877C155.836 56.0623 156.04 56.1398 156.313 56.2259C157.243 56.4641 158.138 56.3809 158.996 55.9733L160.122 55.4394C160.848 55.095 161.416 54.5754 161.824 53.8837C161.898 53.743 162.002 53.5249 162.128 53.2321C162.139 53.1948 162.148 53.1575 162.157 53.1259C162.226 52.9077 162.266 52.7355 162.28 52.6035C162.415 51.794 162.315 51.0363 161.982 50.333L160.001 46.1566C159.685 45.4878 159.189 44.9511 158.514 44.5435C158.388 44.4574 158.213 44.3627 157.989 44.2651C157.731 44.1818 157.541 44.1244 157.421 44.0928C156.531 43.8919 155.687 43.9809 154.892 44.3569L153.721 44.9138L153.723 44.908ZM156.425 46.3145C156.528 46.303 156.657 46.3116 156.812 46.3375C157.332 46.4523 157.699 46.7336 157.914 47.1842L159.863 51.2917C159.981 51.5415 160.027 51.8027 160.001 52.0753C159.969 52.437 159.826 52.7528 159.579 53.0197C159.481 53.1316 159.306 53.2493 159.054 53.3699L158.063 53.8406C157.825 53.9526 157.619 54.0128 157.438 54.0243C157.306 54.0301 157.171 54.0157 157.027 53.9841C156.525 53.8751 156.163 53.5938 155.948 53.1402L154.011 49.0557C153.824 48.6625 153.807 48.2635 153.956 47.8559C154.028 47.6779 154.094 47.5631 154.154 47.5057C154.286 47.2962 154.498 47.1211 154.786 46.9862L155.845 46.4839C156.063 46.3805 156.258 46.326 156.43 46.3203L156.425 46.3145Z" fill="white"/>
<path d="M161.964 61.0067C161.723 60.7426 161.456 60.6479 161.164 60.7254L160.11 61.0067C160.11 61.0067 160.093 61.0182 160.096 61.0297L161.735 67.1924C161.772 67.3301 161.838 67.4478 161.936 67.5454C162.168 67.7549 162.409 67.8267 162.653 67.7607L163.724 67.4765C163.724 67.4765 163.735 67.465 163.738 67.4536L162.111 61.3425C162.073 61.2048 162.025 61.0928 161.962 61.0096L161.964 61.0067Z" fill="white"/>
<path d="M161.792 72.7801C161.652 72.8576 161.488 72.9666 161.301 73.1102C161.175 73.1991 161.003 73.3599 160.785 73.5981C160.604 73.8249 160.478 73.9971 160.406 74.1205C159.978 74.8467 159.797 75.6016 159.86 76.391L160.423 83.2856C160.44 83.4837 160.515 83.6559 160.653 83.8109C160.862 84.0061 161.086 84.0922 161.321 84.0721L162.805 83.9516L162.168 76.1384C162.16 76.0437 162.183 75.9059 162.231 75.7193C162.249 75.6217 162.28 75.5328 162.326 75.4524C162.36 75.3691 162.438 75.2543 162.55 75.1108C162.825 74.8066 163.161 74.6401 163.557 74.6085L164.875 74.4994C165.205 74.4736 165.509 74.5482 165.793 74.729C166.221 75.0132 166.457 75.4036 166.497 75.9002L167.128 83.6186L168.592 83.498C168.747 83.4866 168.891 83.432 169.025 83.3402C169.284 83.1335 169.402 82.8723 169.376 82.5537L168.813 75.6705C168.773 75.1854 168.638 74.709 168.405 74.2353C168.282 74.0086 168.127 73.7818 167.935 73.5551C167.837 73.4202 167.668 73.2479 167.427 73.0413C167.329 72.9666 167.24 72.9006 167.16 72.8432C167.108 72.8088 167.065 72.7772 167.022 72.7456C166.815 72.6279 166.629 72.539 166.471 72.4729C165.908 72.2261 165.288 72.1285 164.617 72.1859L163.434 72.2835C162.817 72.3352 162.269 72.4988 161.792 72.7801Z" fill="white"/>
<path d="M168.411 86.6281C168.23 86.4272 168.096 86.2837 168.007 86.1947C167.338 85.5747 166.566 85.2274 165.687 85.1556L164.396 85.0494C163.646 84.9863 162.94 85.1327 162.277 85.4886C162.128 85.5546 161.933 85.6809 161.689 85.8732C161.465 86.0655 161.304 86.2177 161.204 86.3239C160.635 86.9783 160.317 87.7217 160.248 88.5484L159.866 93.1295C159.815 93.7466 159.912 94.3466 160.156 94.9264C160.254 95.1646 160.383 95.3942 160.544 95.6239C160.624 95.7559 160.759 95.9252 160.954 96.1377C161.64 96.8122 162.455 97.1882 163.403 97.2657L164.642 97.3691C165.443 97.4351 166.195 97.2715 166.896 96.8782C167.031 96.795 167.229 96.6572 167.487 96.4678C167.516 96.4391 167.542 96.4132 167.565 96.3902C167.734 96.2352 167.854 96.1061 167.935 95.9999C168.457 95.3655 168.75 94.6623 168.816 93.8873L169.198 89.2804C169.258 88.5427 169.1 87.8308 168.721 87.1391C168.655 87.0013 168.552 86.8319 168.408 86.6339L168.411 86.6281ZM166.879 89.1196L166.503 93.649C166.48 93.9246 166.388 94.1715 166.227 94.3954C166.017 94.6939 165.736 94.8948 165.389 94.9981C165.248 95.0469 165.036 95.0584 164.757 95.0354L163.664 94.9436C163.403 94.9206 163.19 94.869 163.029 94.7886C162.915 94.7283 162.803 94.6479 162.694 94.5475C162.312 94.2002 162.142 93.7782 162.185 93.2759L162.559 88.7723C162.593 88.3389 162.78 87.9829 163.113 87.7074C163.265 87.5897 163.38 87.5237 163.46 87.5036C163.681 87.3888 163.951 87.3428 164.266 87.3716L165.435 87.4692C165.676 87.4892 165.871 87.5409 166.023 87.6213C166.118 87.6643 166.227 87.7361 166.347 87.8365C166.741 88.1953 166.916 88.6259 166.876 89.1225L166.879 89.1196Z" fill="white"/>
<path d="M160.124 98.1267C159.964 98.0837 159.797 98.1009 159.631 98.1755C159.418 98.2846 159.286 98.4396 159.235 98.6434L158.83 100.17C158.83 100.17 158.83 100.176 158.836 100.179L163.333 101.373C163.17 101.419 162.851 101.505 162.378 101.634C161.052 101.993 160.36 102.183 160.308 102.2C159.369 102.449 158.882 102.582 158.841 102.599C158.603 102.696 158.451 102.86 158.391 103.092L157.923 104.855C157.86 105.096 157.914 105.32 158.086 105.524L159.473 106.904C160.621 108.044 161.252 108.675 161.367 108.793L156.867 107.599C156.867 107.599 156.861 107.599 156.858 107.605L156.453 109.132C156.422 109.249 156.425 109.367 156.456 109.493C156.536 109.778 156.72 109.956 157.007 110.033L164.941 112.137C164.941 112.137 164.947 112.137 164.949 112.131L165.469 110.174C165.498 110.065 165.509 109.973 165.503 109.895C165.489 109.732 165.426 109.585 165.314 109.453C164.562 108.707 164.157 108.305 164.106 108.245C164.019 108.167 163.279 107.435 161.89 106.043C160.94 105.099 160.446 104.605 160.406 104.568V104.562C160.727 104.473 160.92 104.421 160.977 104.407C162.452 104.008 163.908 103.612 165.34 103.224C166.336 102.96 166.87 102.814 166.942 102.788C167.283 102.722 167.496 102.536 167.579 102.223L168.104 100.248C168.104 100.248 168.104 100.242 168.098 100.239L160.127 98.1238L160.124 98.1267Z" fill="white"/>
<path d="M161.689 118.078L155.061 114.656L155.044 114.691C154.992 114.679 154.952 114.673 154.924 114.671C154.843 114.659 154.725 114.671 154.573 114.717C154.355 114.791 154.197 114.923 154.1 115.113L150.939 121.235C150.638 121.821 150.495 122.438 150.506 123.087C150.515 123.27 150.529 123.448 150.558 123.62C150.581 123.781 150.627 123.985 150.701 124.232C150.805 124.502 150.891 124.7 150.962 124.823C151.333 125.521 151.887 126.06 152.621 126.442L153.675 126.987C154.042 127.177 154.387 127.303 154.711 127.369C154.789 127.381 154.863 127.392 154.932 127.404C155.041 127.421 155.136 127.435 155.222 127.444C155.48 127.455 155.744 127.447 156.011 127.418C156.149 127.404 156.37 127.352 156.669 127.272C156.901 127.185 157.079 127.111 157.197 127.051C157.96 126.666 158.534 126.106 158.913 125.368L162.099 119.197C162.148 119.102 162.171 118.968 162.168 118.798C162.134 118.465 161.973 118.227 161.689 118.081V118.078ZM156.864 124.263C156.761 124.461 156.637 124.625 156.494 124.754C156.408 124.826 156.307 124.892 156.195 124.955C156.109 125.001 155.977 125.047 155.799 125.09C155.452 125.156 155.136 125.116 154.852 124.972L153.609 124.329C153.359 124.2 153.161 123.994 153.009 123.707C152.98 123.666 152.94 123.563 152.888 123.391C152.785 123.012 152.817 122.659 152.986 122.332L155.489 117.486L159.338 119.473L156.867 124.261L156.864 124.263Z" fill="white"/>
<path d="M155.136 130.34L154.659 129.987C153.686 129.27 153.112 128.848 152.934 128.721L149.286 126.029C149.174 125.946 149.056 125.891 148.927 125.863C148.695 125.825 148.479 125.868 148.284 125.997C148.195 126.061 148.132 126.115 148.098 126.164L142.879 133.234C142.767 133.386 142.704 133.538 142.696 133.69C142.687 133.73 142.693 133.816 142.71 133.943C142.762 134.164 142.868 134.33 143.026 134.448L144.068 135.217C144.068 135.217 144.073 135.217 144.076 135.217L148.919 128.655L150.024 129.471V129.479L146.637 134.069L148.204 135.226L151.599 130.624L152.641 131.394L147.791 137.967L148.855 138.751C148.93 138.808 148.993 138.845 149.042 138.865C149.183 138.926 149.315 138.951 149.435 138.94C149.711 138.923 149.929 138.802 150.095 138.578L155.331 131.483C155.357 131.44 155.377 131.405 155.386 131.377C155.411 131.336 155.434 131.265 155.454 131.164C155.477 131.023 155.463 130.871 155.408 130.713C155.337 130.55 155.245 130.424 155.13 130.34H155.136Z" fill="white"/>
<path d="M145.982 138.974L145.948 138.937C145.707 138.69 145.517 138.515 145.374 138.406C145.242 138.308 145.124 138.231 145.021 138.173C144.909 138.113 144.808 138.07 144.722 138.041C144.642 138.007 144.538 137.984 144.418 137.97C143.783 137.875 143.097 138.188 142.36 138.908L137.693 143.466C137.675 143.484 137.652 143.501 137.629 143.512C137.532 143.553 137.451 143.541 137.388 143.478L136.915 142.993C136.915 142.993 136.906 142.981 136.9 142.973C136.892 142.961 136.889 142.95 136.886 142.933C136.843 142.838 136.857 142.755 136.929 142.683L143.428 136.334L142.535 135.421C142.357 135.24 142.147 135.137 141.901 135.114C141.565 135.088 141.286 135.18 141.071 135.392L135.368 140.966C134.753 141.566 134.397 142.129 134.303 142.654C134.179 143.297 134.438 143.943 135.075 144.597L135.718 145.258C136.068 145.616 136.427 145.857 136.794 145.981C137.213 146.119 137.649 146.09 138.109 145.895C138.252 145.832 138.419 145.737 138.605 145.608C138.861 145.427 139.053 145.269 139.185 145.14L139.222 145.103C140.236 144.112 140.922 143.435 141.281 143.076C141.407 142.947 141.493 142.858 141.545 142.809C141.743 142.617 142.535 141.836 143.924 140.467C143.933 140.458 143.941 140.453 143.95 140.447C143.959 140.441 143.967 140.438 143.979 140.432C144.079 140.395 144.171 140.415 144.251 140.498L144.593 140.849C144.65 140.906 144.679 140.966 144.676 141.027C144.67 141.093 144.642 141.15 144.596 141.193C144.369 141.417 143.941 141.839 143.318 142.459C142.716 143.047 141.872 143.88 140.781 144.956C139.392 146.314 138.485 147.206 138.06 147.631L138.051 147.64L138.93 148.538C139.171 148.785 139.458 148.897 139.791 148.877C140.038 148.845 140.241 148.754 140.399 148.596L146.255 142.875C146.473 142.663 146.654 142.439 146.8 142.206C146.978 141.942 147.099 141.658 147.156 141.362C147.179 141.279 147.185 141.167 147.179 141.027C147.173 140.774 147.122 140.547 147.027 140.346C146.909 140.022 146.562 139.566 145.982 138.971V138.974Z" fill="white"/>
<path d="M132.055 144.069C131.802 144.043 131.59 144.092 131.424 144.221L129.888 145.407L134.825 151.799C134.937 151.945 135.06 152.046 135.195 152.1C135.514 152.224 135.807 152.184 136.076 151.974L137.572 150.82L132.623 144.411C132.471 144.213 132.282 144.098 132.058 144.066L132.055 144.069Z" fill="white"/>
<path d="M131.154 149.573C130.709 148.838 130.095 148.304 129.308 147.977C129.162 147.919 128.969 147.859 128.731 147.799C128.502 147.753 128.309 147.718 128.154 147.704C127.316 147.652 126.564 147.83 125.898 148.232L119.979 151.812C119.81 151.915 119.687 152.061 119.612 152.251C119.532 152.526 119.552 152.765 119.675 152.965L122.046 156.889L126.946 153.927C127.006 153.893 127.063 153.844 127.127 153.789C127.279 153.608 127.351 153.419 127.342 153.224C127.365 153.08 127.313 152.905 127.19 152.698L126.644 151.794L123.372 153.772L122.798 152.822L127.147 150.193C127.227 150.144 127.359 150.098 127.543 150.052C127.638 150.035 127.744 150.026 127.864 150.023C127.968 150.026 128.094 150.043 128.246 150.072C128.642 150.19 128.941 150.411 129.139 150.738L129.836 151.892C130 152.159 130.063 152.463 130.034 152.805C129.968 153.318 129.727 153.7 129.311 153.95L122.68 157.96L123.43 159.2C123.504 159.326 123.599 159.424 123.714 159.496C124.03 159.676 124.334 159.679 124.629 159.501L130.539 155.931C130.993 155.658 131.375 155.29 131.691 154.828C131.805 154.662 131.906 154.49 131.992 154.306C132.067 154.165 132.153 153.936 132.253 153.614C132.506 152.546 132.359 151.556 131.805 150.643L131.162 149.578L131.154 149.573Z" fill="white"/>
<path d="M118.257 153.757C118.22 153.663 118.168 153.577 118.102 153.505C117.97 153.359 117.812 153.264 117.623 153.221C117.468 153.189 117.293 153.212 117.095 153.29L115.78 153.803L118.01 159.507L116.687 159.027C115.803 158.703 114.793 158.336 113.653 157.925C112.514 157.515 111.492 157.153 110.585 156.837C109.678 156.522 109.198 156.375 109.152 156.395L107.887 156.892C107.737 156.949 107.643 157.001 107.594 157.047C107.516 157.11 107.456 157.173 107.413 157.236C107.255 157.506 107.229 157.776 107.333 158.043L109.973 164.797C110.039 164.969 110.148 165.104 110.298 165.202C110.545 165.362 110.811 165.388 111.096 165.276L112.448 164.748L110.214 159.039L111.541 159.524C112.425 159.848 113.435 160.216 114.572 160.626C115.708 161.037 116.73 161.401 117.631 161.717C118.536 162.033 119.009 162.182 119.052 162.165L120.404 161.637C120.588 161.565 120.729 161.447 120.82 161.286C120.975 161.037 121.001 160.776 120.895 160.503L118.257 153.755V153.757Z" fill="white"/>
<path d="M103.607 165.918C103.406 164.727 103.285 164.024 103.242 163.808L102.484 159.339C102.462 159.204 102.416 159.081 102.344 158.972C102.203 158.782 102.017 158.665 101.787 158.622C101.678 158.604 101.595 158.602 101.537 158.61L92.8745 160.077C92.6879 160.109 92.5386 160.175 92.4238 160.278C92.3894 160.301 92.3348 160.364 92.2602 160.47C92.1454 160.665 92.1023 160.858 92.1368 161.053L92.3521 162.33C92.3521 162.33 92.3549 162.336 92.3607 162.336L100.401 160.975L100.63 162.33L100.624 162.339L94.9986 163.292L95.3229 165.212L100.96 164.256L101.176 165.534L93.1213 166.897L93.3423 168.2C93.3567 168.295 93.3768 168.364 93.3969 168.412C93.4572 168.556 93.5347 168.665 93.6294 168.74C93.8389 168.918 94.08 168.984 94.3556 168.938L103.053 167.465C103.102 167.454 103.139 167.439 103.165 167.428C103.211 167.416 103.277 167.379 103.363 167.322C103.48 167.236 103.572 167.118 103.644 166.966C103.707 166.799 103.727 166.644 103.704 166.504L103.604 165.918H103.607Z" fill="white"/>
<path d="M91.0777 165.537C91.0519 165.373 91.0203 165.235 90.9859 165.124C90.9457 165.003 90.9055 164.903 90.8624 164.822C90.828 164.742 90.7706 164.653 90.6931 164.558C90.3027 164.05 89.5937 163.797 88.5604 163.803L82.036 163.841C82.0102 163.841 81.9844 163.838 81.9585 163.829C81.8581 163.792 81.8093 163.726 81.8093 163.637V162.959C81.8093 162.959 81.8064 162.948 81.8093 162.933C81.8093 162.919 81.8179 162.908 81.8236 162.893C81.8581 162.793 81.927 162.744 82.0303 162.744L91.115 162.689L91.1064 161.412C91.1064 161.16 91.0232 160.939 90.8653 160.749C90.6414 160.497 90.3773 160.37 90.076 160.373L82.1021 160.419C81.2409 160.425 80.5951 160.583 80.1646 160.896C79.6278 161.272 79.3637 161.917 79.3695 162.827L79.3752 163.749C79.3781 164.251 79.4699 164.676 79.6479 165.017C79.8517 165.408 80.1875 165.692 80.6525 165.87C80.7989 165.924 80.9855 165.97 81.2065 166.008C81.5165 166.054 81.7634 166.077 81.9471 166.074H81.9987C83.4167 166.065 84.3811 166.056 84.8863 166.045C85.0672 166.039 85.1906 166.036 85.2595 166.036C85.535 166.036 86.6487 166.025 88.5977 166.005C88.6092 166.005 88.6207 166.005 88.6293 166.008C88.6379 166.011 88.6494 166.013 88.6609 166.016C88.7613 166.059 88.8101 166.137 88.8101 166.254V166.745C88.813 166.826 88.7929 166.889 88.7498 166.932C88.6982 166.975 88.6408 166.998 88.5748 166.998C88.2561 166.998 87.6562 167.007 86.775 167.021C85.934 167.027 84.7457 167.038 83.2158 167.055C81.2725 167.067 80.001 167.078 79.401 167.09H79.3896L79.3982 168.347C79.3982 168.691 79.5273 168.973 79.7828 169.191C79.9809 169.34 80.1933 169.415 80.4172 169.412L88.6035 169.363C88.9077 169.363 89.1947 169.329 89.4617 169.263C89.7746 169.197 90.0559 169.076 90.3056 168.904C90.3773 168.861 90.4606 168.783 90.5553 168.677C90.7247 168.49 90.8481 168.292 90.9198 168.083C91.0605 167.767 91.1265 167.196 91.1236 166.366V166.315C91.1236 165.97 91.1064 165.712 91.0806 165.534L91.0777 165.537Z" fill="white"/>
<path d="M73.8612 160.488C73.8899 160.319 73.8555 160.144 73.7579 159.963C73.7406 159.934 73.7263 159.911 73.7148 159.897C73.7148 159.888 73.7091 159.88 73.7062 159.877C73.5512 159.681 73.3675 159.567 73.1608 159.535L71.6855 159.297L70.6263 165.853L65.873 165.084L65.629 166.585C65.6118 166.685 65.629 166.817 65.6835 166.978C65.7007 167.038 65.7467 167.116 65.8213 167.216C65.9591 167.391 66.1514 167.498 66.3954 167.538L76.2551 169.131C76.4503 169.162 76.6081 169.151 76.7258 169.096C76.7775 169.082 76.8579 169.039 76.9755 168.967C77.0846 168.881 77.1736 168.755 77.2396 168.591C77.2568 168.591 77.2913 168.439 77.3401 168.138L77.5295 166.966L72.9398 166.226L73.8669 160.491L73.8612 160.488Z" fill="white"/>
<path d="M64.6359 157.834C64.4608 157.774 64.2914 157.771 64.1249 157.817C63.8408 157.92 63.6542 158.104 63.5652 158.362L63.0974 159.748L61.5445 159.226C60.2758 158.807 59.5151 158.554 59.2625 158.471C59.2224 158.468 59.1965 158.463 59.185 158.46L59.0645 158.112C58.8176 157.421 58.5765 156.781 58.344 156.189C58.2837 156.02 58.2206 155.891 58.1546 155.805C58.1345 155.779 58.1173 155.759 58.1029 155.739C58.0886 155.718 58.0685 155.701 58.0484 155.678C57.9737 155.618 57.8618 155.561 57.7097 155.509L55.0689 154.619C55.0718 154.648 55.0976 154.702 55.1407 154.786C55.2756 155.09 55.4134 155.414 55.554 155.762C55.6286 155.942 55.7062 156.123 55.7837 156.31C55.8927 156.608 56.1109 157.105 56.441 157.797C56.2487 157.791 56.0621 157.794 55.8812 157.805C55.8324 157.811 55.7837 157.817 55.732 157.822C55.6287 157.837 55.511 157.854 55.3818 157.874C55.3617 157.88 55.3416 157.886 55.3215 157.888C55.1895 157.92 55.0747 157.952 54.9857 157.98L54.868 158.023L54.8077 158.043L54.7274 158.084C54.6642 158.112 54.5982 158.147 54.5293 158.187C54.3915 158.262 54.2681 158.336 54.1619 158.411C54.0299 158.517 53.9179 158.615 53.8232 158.707C53.5103 159.031 53.2807 159.413 53.1314 159.849L53.1056 159.929C52.9822 160.291 52.9305 160.656 52.942 161.017C52.9678 161.697 53.1946 162.292 53.6251 162.805C53.7141 162.92 53.7974 163.024 53.8806 163.115C53.938 163.173 54.0212 163.245 54.1275 163.334C54.647 163.799 55.3244 164.172 56.1597 164.453L62.3539 166.54C62.5663 166.612 62.7845 166.597 63.0084 166.494C63.0629 166.471 63.1088 166.445 63.1519 166.413C63.215 166.362 63.2638 166.316 63.2954 166.27C63.3557 166.198 63.4102 166.095 63.4562 165.957L66.0337 158.302L64.633 157.831L64.6359 157.834ZM61.711 163.87L56.5185 162.122C56.4352 162.085 56.3692 162.059 56.3204 162.042C56.1798 161.962 56.0793 161.893 56.0162 161.832C56.0075 161.821 55.9961 161.809 55.9846 161.801C55.9473 161.766 55.9128 161.726 55.8812 161.683C55.6746 161.39 55.6229 161.098 55.7234 160.799C55.775 160.65 55.8468 160.523 55.9444 160.426C56.0649 160.294 56.2142 160.208 56.395 160.162C56.6448 160.096 56.9634 160.13 57.3537 160.259L62.3568 161.944L61.7081 163.87H61.711Z" fill="white"/>
<path d="M54.7648 154.601C54.7648 154.601 54.7648 154.596 54.7562 154.593L53.0282 153.651C52.6464 153.445 52.2561 153.433 51.8571 153.617L50.8611 154.234C50.8438 154.254 50.8295 154.265 50.8151 154.268C50.8008 154.268 50.7922 154.268 50.7836 154.268L45.37 151.323C45.37 151.323 45.3643 151.234 45.3643 151.091C45.3643 150.924 45.3557 150.666 45.3442 150.316C45.3614 149.762 45.1404 149.36 44.6783 149.11L42.9331 148.16L42.9503 149.704C42.9589 149.773 42.9848 151.24 43.0336 154.11C43.0422 154.57 43.0508 154.98 43.0537 155.339C43.0766 156.602 43.0881 157.271 43.0938 157.342C43.0938 157.371 43.0938 157.4 43.0938 157.431C43.091 157.655 43.0938 157.825 43.1111 157.939C43.1857 158.341 43.3895 158.634 43.7282 158.818L45.3873 159.722C45.6887 159.886 46.013 159.911 46.3603 159.797C46.4751 159.748 46.5928 159.682 46.7163 159.601C46.7564 159.581 47.2387 159.283 48.1543 158.712C48.7456 158.344 49.5235 157.862 50.485 157.265C51.6935 156.519 53.1172 155.635 54.7562 154.613C54.7562 154.61 54.759 154.607 54.7619 154.604L54.7648 154.601ZM45.4791 157.589C45.482 157.529 45.459 156.166 45.4045 153.505L48.9494 155.434L45.4791 157.589Z" fill="white"/>
<path d="M41.9197 147.313L34.9619 141.948C34.8126 141.833 34.6605 141.767 34.5084 141.753C34.4682 141.744 34.3821 141.747 34.2558 141.761C34.0348 141.807 33.8654 141.911 33.7449 142.066L32.9526 143.093C32.9526 143.093 32.9526 143.099 32.9526 143.102L39.411 148.082L38.5728 149.17H38.5642L34.0462 145.688L32.8579 147.23L37.3874 150.723L36.5951 151.75L30.1253 146.762L29.3187 147.809C29.2613 147.884 29.2211 147.947 29.201 147.996C29.135 148.137 29.1092 148.266 29.1178 148.389C29.1293 148.665 29.2441 148.886 29.4651 149.058L36.4487 154.443C36.4918 154.471 36.5262 154.489 36.5521 154.497C36.5923 154.523 36.664 154.546 36.7645 154.572C36.9051 154.601 37.0573 154.589 37.2151 154.538C37.3816 154.469 37.5079 154.38 37.594 154.268L37.9557 153.797C38.6934 152.841 39.1268 152.273 39.2588 152.098L42.0259 148.51C42.1091 148.401 42.1694 148.283 42.201 148.157C42.244 147.924 42.2038 147.709 42.0804 147.511C42.0201 147.422 41.9656 147.356 41.9168 147.321L41.9197 147.313Z" fill="white"/>
<path d="M30.9951 143.757C31.6208 143.169 32.0112 142.454 32.1691 141.616C32.1949 141.461 32.2121 141.263 32.2236 141.016C32.2236 140.781 32.2121 140.588 32.1949 140.431C32.0686 139.601 31.7385 138.901 31.2046 138.335L26.4628 133.298C26.3279 133.154 26.1585 133.065 25.9547 133.031C25.6705 133.011 25.4409 133.08 25.2687 133.243L21.9305 136.386L25.8543 140.554C25.9002 140.603 25.9605 140.652 26.0265 140.7C26.236 140.809 26.4369 140.841 26.6264 140.792C26.7728 140.784 26.9335 140.698 27.1086 140.534L27.8779 139.808L25.2572 137.023L26.0638 136.263L29.5455 139.963C29.6116 140.032 29.6833 140.152 29.7666 140.321C29.8039 140.41 29.8355 140.514 29.8613 140.631C29.8785 140.732 29.89 140.861 29.8957 141.016C29.8642 141.429 29.7092 141.765 29.4307 142.029L28.4491 142.954C28.2194 143.169 27.9381 143.298 27.5994 143.338C27.0856 143.381 26.6608 143.226 26.3279 142.87L21.0177 137.227L19.9614 138.22C19.8552 138.321 19.7777 138.433 19.7318 138.559C19.6198 138.906 19.683 139.205 19.9183 139.455L24.6516 144.484C25.0132 144.868 25.4524 145.167 25.9691 145.376C26.1556 145.454 26.3451 145.517 26.5431 145.563C26.6981 145.606 26.9393 145.643 27.2751 145.672C28.3716 145.695 29.3073 145.342 30.0852 144.613L30.9922 143.76L30.9951 143.757Z" fill="white"/>
<path d="M24.6056 131.215C24.6372 130.963 24.5884 130.75 24.4621 130.581L23.2996 129.025L16.8269 133.859C16.6776 133.971 16.5771 134.092 16.5197 134.224C16.3906 134.539 16.4279 134.835 16.6317 135.105L17.7626 136.618L24.2496 131.772C24.4506 131.623 24.5683 131.436 24.6027 131.21L24.6056 131.215Z" fill="white"/>
<path d="M19.1203 130.254C19.6542 129.941 20.0761 129.557 20.3833 129.095C20.478 128.966 20.5756 128.796 20.6818 128.584C20.7564 128.449 20.8425 128.228 20.9344 127.921C20.9975 127.639 21.0377 127.427 21.0492 127.286C21.121 126.448 20.9573 125.688 20.5584 125.004L17.0623 119.034C16.9618 118.865 16.8183 118.738 16.626 118.661C16.3533 118.578 16.115 118.595 15.9112 118.715L14.6253 119.467L18.5864 126.233C18.6352 126.316 18.6754 126.448 18.7127 126.638C18.7386 126.732 18.7472 126.827 18.7443 126.919C18.7472 127.011 18.7299 127.146 18.6898 127.324C18.5721 127.717 18.3424 128.013 18.0009 128.213L16.8613 128.882C16.5743 129.049 16.2672 129.112 15.9342 129.075C15.4261 129.006 15.0444 128.753 14.7918 128.323L10.8795 121.64L9.61077 122.384C9.47873 122.461 9.36966 122.573 9.28929 122.714C9.14577 123.012 9.15438 123.299 9.31512 123.572L12.8026 129.531C13.0495 129.95 13.3767 130.323 13.7929 130.648C14.0024 130.8 14.2407 130.935 14.5105 131.058C14.6569 131.138 14.8836 131.219 15.1908 131.302C15.3085 131.328 15.4204 131.348 15.518 131.365C15.5783 131.374 15.6328 131.385 15.6845 131.394C15.9227 131.408 16.1265 131.411 16.3016 131.4C16.9159 131.38 17.5158 131.196 18.0985 130.857L19.1232 130.257L19.1203 130.254Z" fill="white"/>
<path d="M11.5138 119.632L12.7251 119.169C13.4284 118.9 14.0024 118.463 14.4445 117.855C14.5507 117.731 14.6712 117.53 14.809 117.252C14.9267 116.982 15.0071 116.776 15.0501 116.635C15.2769 115.797 15.2424 114.993 14.9468 114.218L13.3049 109.924C13.0839 109.347 12.7366 108.848 12.2659 108.431C12.0764 108.259 11.8583 108.107 11.6143 107.969C11.4851 107.886 11.2871 107.791 11.023 107.685C10.1131 107.375 9.21465 107.389 8.32771 107.728L7.16521 108.173C6.41317 108.46 5.80753 108.934 5.34827 109.594C5.26216 109.729 5.14447 109.935 4.99521 110.22C4.98086 110.257 4.96938 110.291 4.9579 110.323C4.87465 110.535 4.82012 110.705 4.79429 110.834C4.5991 111.632 4.63929 112.393 4.91771 113.122L6.57104 117.439C6.83512 118.13 7.28864 118.704 7.92873 119.164C8.04929 119.261 8.21577 119.368 8.43105 119.482C8.68077 119.586 8.86734 119.657 8.98215 119.698C9.85474 119.967 10.7015 119.944 11.5253 119.629L11.5138 119.632ZM9.75428 117.505C9.24336 117.35 8.89892 117.04 8.72096 116.575L7.09632 112.329C6.99873 112.074 6.9729 111.807 7.02169 111.537C7.08197 111.178 7.24845 110.877 7.5154 110.63C7.6216 110.524 7.80531 110.423 8.06651 110.323L9.09123 109.93C9.33521 109.835 9.55049 109.792 9.73132 109.795C9.86336 109.801 9.99827 109.824 10.1389 109.867C10.6326 110.013 10.9685 110.323 11.1493 110.791L12.7653 115.013C12.9203 115.418 12.9088 115.82 12.728 116.216C12.6419 116.388 12.5673 116.497 12.5041 116.552C12.3548 116.753 12.1309 116.908 11.8353 117.022L10.7388 117.441C10.5149 117.528 10.314 117.568 10.1418 117.559C10.0385 117.562 9.90929 117.545 9.75716 117.508L9.75428 117.505Z" fill="white"/>
<path d="M5.75034 102.49C5.96849 102.774 6.22969 102.886 6.52821 102.831L7.59886 102.63C7.59886 102.63 7.61608 102.622 7.61321 102.607L6.44497 96.3384C6.41913 96.1977 6.36173 96.0772 6.27275 95.971C6.0546 95.7442 5.8221 95.6552 5.57238 95.7012L4.48163 95.9049C4.48163 95.9049 4.46729 95.9136 4.46729 95.9279L5.62692 102.145C5.65275 102.286 5.69293 102.401 5.75034 102.49Z" fill="white"/>
</svg>
